<svg width="12" height="13" viewBox="0 0 12 13" fill="none" xmlns="http://www.w3.org/2000/svg">
<g id="ant-design:link-outlined">
<path id="Vector" d="M6.72657 8.29766C6.70895 8.28022 6.68515 8.27043 6.66036 8.27043C6.63556 8.27043 6.61177 8.28022 6.59415 8.29766L5.23243 9.65938C4.60196 10.2899 3.5379 10.3566 2.8418 9.65938C2.14454 8.96212 2.21133 7.89923 2.8418 7.26876L4.20352 5.90704C4.23985 5.87071 4.23985 5.81094 4.20352 5.77462L3.73712 5.30821C3.7195 5.29076 3.6957 5.28098 3.6709 5.28098C3.64611 5.28098 3.62231 5.29076 3.60469 5.30821L2.24297 6.66993C1.25157 7.66133 1.25157 9.26563 2.24297 10.2559C3.23438 11.2461 4.83868 11.2473 5.82891 10.2559L7.19063 8.89415C7.22696 8.85782 7.22696 8.79805 7.19063 8.76173L6.72657 8.29766ZM9.75704 2.74297C8.76563 1.75157 7.16133 1.75157 6.1711 2.74297L4.80821 4.10469C4.79076 4.12231 4.78097 4.14611 4.78097 4.1709C4.78097 4.1957 4.79076 4.2195 4.80821 4.23712L5.27344 4.70235C5.30977 4.73868 5.36954 4.73868 5.40587 4.70235L6.76758 3.34063C7.39805 2.71016 8.46212 2.64337 9.15821 3.34063C9.85547 4.0379 9.78868 5.10079 9.15821 5.73126L7.79649 7.09298C7.77904 7.1106 7.76926 7.13439 7.76926 7.15919C7.76926 7.18398 7.77904 7.20778 7.79649 7.2254L8.2629 7.6918C8.29922 7.72813 8.35899 7.72813 8.39532 7.6918L9.75704 6.33008C10.7473 5.33868 10.7473 3.73438 9.75704 2.74297ZM7.14962 4.8629C7.132 4.84545 7.1082 4.83566 7.08341 4.83566C7.05861 4.83566 7.03481 4.84545 7.01719 4.8629L4.3629 7.51602C4.34545 7.53364 4.33566 7.55744 4.33566 7.58223C4.33566 7.60703 4.34545 7.63082 4.3629 7.64844L4.82696 8.11251C4.86329 8.14883 4.92305 8.14883 4.95938 8.11251L7.61251 5.45938C7.64883 5.42305 7.64883 5.36329 7.61251 5.32696L7.14962 4.8629Z" fill="#AF48FF"/>
</g>
</svg>
